<?xml version="1.0" encoding="UTF-8"?>
<svg width="32" height="32" viewBox="0 0 32 32" fill="none" xmlns="http://www.w3.org/2000/svg">
    <path d="M16 32C24.8366 32 32 24.8366 32 16C32 7.16344 24.8366 0 16 0C7.16344 0 0 7.16344 0 16C0 24.8366 7.16344 32 16 32Z" fill="#F3BA2F"/>
    <path d="M12.116 14.404L16 10.52L19.886 14.406L22.3 11.994L16 5.694L9.702 11.992L12.116 14.404Z" fill="white"/>
    <path d="M5.694 16L8.106 13.588L10.52 16L8.108 18.412L5.694 16Z" fill="white"/>
    <path d="M12.116 17.594L16 21.48L19.886 17.594L22.3 20.006L16 26.306L9.702 20.008L12.116 17.594Z" fill="white"/>
    <path d="M21.48 16L23.892 13.588L26.306 16L23.894 18.412L21.48 16Z" fill="white"/>
    <path d="M16 12.116L18.412 14.528L16 16.94L13.588 14.528L16 12.116Z" fill="white"/>
</svg> 