<svg width="32" height="32" viewBox="0 0 32 32" fill="none" xmlns="http://www.w3.org/2000/svg">
  <circle cx="16" cy="16" r="16" fill="#14F195"/>
  <path d="M9.023 20.977C8.349 20.304 8 19.408 8 18.477C8 17.546 8.349 16.65 9.023 15.977L12.477 12.523C13.15 11.849 14.046 11.5 14.977 11.5C15.908 11.5 16.804 11.849 17.477 12.523C18.151 13.196 18.5 14.092 18.5 15.023C18.5 15.954 18.151 16.85 17.477 17.523L16.5 18.5" stroke="white" stroke-width="2" stroke-linecap="round" stroke-linejoin="round"/>
  <path d="M22.977 11.023C23.651 11.696 24 12.592 24 13.523C24 14.454 23.651 15.35 22.977 16.023L19.523 19.477C18.85 20.151 17.954 20.5 17.023 20.5C16.092 20.5 15.196 20.151 14.523 19.477C13.849 18.804 13.5 17.908 13.5 16.977C13.5 16.046 13.849 15.15 14.523 14.477L15.5 13.5" stroke="white" stroke-width="2" stroke-linecap="round" stroke-linejoin="round"/>
</svg>
